<svg width="385" height="260" viewBox="0 0 385 260" xmlns="http://www.w3.org/2000/svg" xmlns:xlink="http://www.w3.org/1999/xlink"><title>Group 2</title><defs><filter x="-50%" y="-50%" width="200%" height="200%" filterUnits="objectBoundingBox" id="q"><feOffset dy="4" in="SourceAlpha" result="shadowOffsetOuter1"/><feGaussianBlur stdDeviation="3.5" in="shadowOffsetOuter1" result="shadowBlurOuter1"/><feColorMatrix values="0 0 0 0 0 0 0 0 0 0 0 0 0 0 0 0 0 0 0.25 0" in="shadowBlurOuter1" result="shadowMatrixOuter1"/><feMerge><feMergeNode in="shadowMatrixOuter1"/><feMergeNode in="SourceGraphic"/></feMerge></filter><path id="a" d="M301 209h43v9h-43z"/><mask id="r" x="0" y="0" width="43" height="9" fill="#fff"><use xlink:href="#a"/></mask><path id="b" d="M301 222h43v9h-43z"/><mask id="s" x="0" y="0" width="43" height="9" fill="#fff"><use xlink:href="#b"/></mask><path id="c" d="M144 206h43v9h-43z"/><mask id="t" x="0" y="0" width="43" height="9" fill="#fff"><use xlink:href="#c"/></mask><path id="d" d="M144 219h43v9h-43z"/><mask id="u" x="0" y="0" width="43" height="9" fill="#fff"><use xlink:href="#d"/></mask><path id="e" d="M144 232h43v9h-43z"/><mask id="v" x="0" y="0" width="43" height="9" fill="#fff"><use xlink:href="#e"/></mask><path id="f" d="M301 235h43v9h-43z"/><mask id="w" x="0" y="0" width="43" height="9" fill="#fff"><use xlink:href="#f"/></mask><path id="g" d="M0 194h43v9H0z"/><mask id="x" x="0" y="0" width="43" height="9" fill="#fff"><use xlink:href="#g"/></mask><path id="h" d="M0 207h43v9H0z"/><mask id="y" x="0" y="0" width="43" height="9" fill="#fff"><use xlink:href="#h"/></mask><path id="i" d="M0 220h43v9H0z"/><mask id="z" x="0" y="0" width="43" height="9" fill="#fff"><use xlink:href="#i"/></mask><path id="j" d="M0 194h43v9H0z"/><mask id="A" x="0" y="0" width="43" height="9" fill="#fff"><use xlink:href="#j"/></mask><path id="k" d="M0 207h43v9H0z"/><mask id="B" x="0" y="0" width="43" height="9" fill="#fff"><use xlink:href="#k"/></mask><path id="l" d="M0 220h43v9H0z"/><mask id="C" x="0" y="0" width="43" height="9" fill="#fff"><use xlink:href="#l"/></mask><path id="m" d="M345 152h26v26h-26z"/><mask id="D" x="0" y="0" width="26" height="26" fill="#fff"><use xlink:href="#m"/></mask><path id="n" d="M250 150h26v26h-26z"/><mask id="E" x="0" y="0" width="26" height="26" fill="#fff"><use xlink:href="#n"/></mask><path id="o" d="M204 185h26v26h-26z"/><mask id="F" x="0" y="0" width="26" height="26" fill="#fff"><use xlink:href="#o"/></mask><path id="p" d="M100 174h26v26h-26z"/><mask id="G" x="0" y="0" width="26" height="26" fill="#fff"><use xlink:href="#p"/></mask></defs><g filter="url(#q)" transform="translate(7 5)" fill="none" fill-rule="evenodd"><path d="M38.883 79.116c2.136 0-6.468-18.365 16.596-33.9 23.064-15.536 43.564 0 43.564 0s2.657-24.144 36.193-27.485c33.535-3.34 46.05 21.117 46.05 21.117S199.39-5.837 249.108.642c49.718 6.48 50.27 43.2 50.27 43.2s19.227-1.88 22.877 13.384c3.65 15.265-10.847 20.138-10.847 20.138s40.038 3.745 37.099 29.504c-2.556 22.397-15.134 22.397-37.099 22.397H49.862s-39.811 2.048-43.573-22.397C2.526 82.424 36.747 79.116 38.883 79.116z" fill="#FFF"/><path d="M39.897 79.871s-9.802-15.555 15.208-34.655c20.318-15.517 43.565 0 43.565 0s2.657-24.144 36.192-27.485c33.536-3.34 46.05 21.117 46.05 21.117S199.017-5.837 248.735.642c49.718 6.48 50.232 43.28 50.232 43.28l-7.107 8.045s0-36.032-44.97-41.209c-43.121-4.963-64.539 45.078-64.539 45.078s-13.654-33.08-47.489-29.093c-32.68 3.852-29.861 32.305-29.861 32.305s-24.266-22.012-45.42-8.007c-18.024 11.933-14.8 32.544-14.8 32.544l-4.884-3.714zM13 120h331.706s-7.074 9.855-20.47 9.855H44.151C25.931 129.855 13 120 13 120z" fill="#ECF0F2"/><path d="M38.883 79.116c2.136 0-5.83-19.05 16.596-33.9 22.426-14.852 43.564 0 43.564 0s2.657-24.144 36.193-27.485c33.535-3.34 46.05 21.117 46.05 21.117S203.135-5.714 250.108.642c46.972 6.357 49.27 43.2 49.27 43.2s19.227-1.88 22.877 13.384c3.65 15.265-10.847 20.138-10.847 20.138s40.038 3.745 37.099 29.504c-2.556 22.397-15.134 22.397-37.099 22.397H49.862s-39.811 2.048-43.573-22.397C2.526 82.424 36.747 79.116 38.883 79.116z" stroke="#5596E6" stroke-width="3"/><ellipse fill="#FFF" cx="324.5" cy="164.5" rx="6.5" ry="6.5"/><ellipse fill="#ECF0F2" cx="328.5" cy="166.5" rx="6.5" ry="6.5"/><ellipse stroke="#5596E6" stroke-width="3" cx="324.5" cy="164.5" rx="6.5" ry="6.5"/><ellipse fill="#FFF" cx="297.5" cy="188.5" rx="6.5" ry="6.5"/><ellipse fill="#ECF0F2" cx="301.5" cy="189.5" rx="6.5" ry="6.5"/><ellipse stroke="#5596E6" stroke-width="3" cx="297.5" cy="187.5" rx="6.5" ry="6.5"/><ellipse fill="#FFF" cx="262.5" cy="215.5" rx="6.5" ry="6.5"/><ellipse fill="#ECF0F2" cx="266.5" cy="217.5" rx="6.5" ry="6.5"/><ellipse stroke="#5596E6" stroke-width="3" cx="262.5" cy="215.5" rx="6.5" ry="6.5"/><ellipse fill="#FFF" cx="40.5" cy="154.5" rx="6.5" ry="6.5"/><ellipse fill="#ECF0F2" cx="44.5" cy="156.5" rx="6.5" ry="6.5"/><ellipse stroke="#5596E6" stroke-width="3" cx="40.5" cy="154.5" rx="6.5" ry="6.5"/><ellipse fill="#FFF" cx="165.5" cy="154.5" rx="6.5" ry="6.5"/><ellipse fill="#ECF0F2" cx="169.5" cy="156.5" rx="6.5" ry="6.5"/><ellipse stroke="#5596E6" stroke-width="3" cx="165.5" cy="154.5" rx="6.5" ry="6.5"/><ellipse fill="#FFF" cx="216.5" cy="154.5" rx="6.5" ry="6.5"/><ellipse fill="#ECF0F2" cx="220.5" cy="156.5" rx="6.5" ry="6.5"/><ellipse stroke="#5596E6" stroke-width="3" cx="216.5" cy="154.5" rx="6.5" ry="6.5"/><path fill="#ECF0F2" d="M322 209h20v9h-20z"/><path fill="#FFF" d="M302 209h20v9h-20zM302 222h20v9h-20zM302 235h20v9h-20z"/><path fill="#ECF0F2" d="M322 222h20v9h-20zM322 235h20v9h-20z"/><use stroke="#5596E6" mask="url(#r)" stroke-width="6" xlink:href="#a"/><use stroke="#5596E6" mask="url(#s)" stroke-width="6" xlink:href="#b"/><path fill="#FFF" d="M144 206h43v9h-43zM144 219h43v9h-43zM144 232h43v9h-43z"/><path fill="#ECF0F2" d="M165 206h20v9h-20zM165 219h20v9h-20zM165 232h20v9h-20z"/><use stroke="#5596E6" mask="url(#t)" stroke-width="6" xlink:href="#c"/><use stroke="#5596E6" mask="url(#u)" stroke-width="6" xlink:href="#d"/><use stroke="#5596E6" mask="url(#v)" stroke-width="6" xlink:href="#e"/><use stroke="#5596E6" mask="url(#w)" stroke-width="6" xlink:href="#f"/><use stroke="#4178BE" mask="url(#x)" stroke-width="6" fill="#FFF" xlink:href="#g"/><use stroke="#4178BE" mask="url(#y)" stroke-width="6" fill="#FFF" xlink:href="#h"/><use stroke="#4178BE" mask="url(#z)" stroke-width="6" fill="#FFF" xlink:href="#i"/><path fill="#ECF0F2" d="M21 194h20.356v9H21zM21 207h20.356v9H21zM21 220h20.356v9H21z"/><use stroke="#5596E6" mask="url(#A)" stroke-width="6" xlink:href="#j"/><use stroke="#5596E6" mask="url(#B)" stroke-width="6" xlink:href="#k"/><use stroke="#5596E6" mask="url(#C)" stroke-width="6" xlink:href="#l"/><path fill="#ECF0F2" d="M263 150h13v26h-13z"/><path fill="#FFF" d="M251 150h12v26h-12zM346 153h12v24h-12z"/><path fill="#ECF0F2" d="M358 152h13v26h-13z"/><use stroke="#5596E6" mask="url(#D)" stroke-width="6" xlink:href="#m"/><use stroke="#5596E6" mask="url(#E)" stroke-width="6" xlink:href="#n"/><path fill="#FFF" d="M204 185h26v26h-26z"/><path fill="#ECF0F2" d="M217 185h13v26h-13z"/><use stroke="#5596E6" mask="url(#F)" stroke-width="6" xlink:href="#o"/><path fill="#FFF" d="M100 174h26v26h-26z"/><path fill="#ECF0F2" d="M113 174h13v26h-13z"/><use stroke="#5596E6" mask="url(#G)" stroke-width="6" xlink:href="#p"/><path d="M75.5 129.493v42.265M21.5 181.5v11M113.5 201.455V212.5M40.5 129.493V147.5M262.5 175.493v33.068M47.5 154.493h111.005M165.504 162.065v43.48M216.504 162.065V185M324.5 129.5v27M321.563 188.034H304.5M297.5 130.49v50.02" stroke="#5596E6" stroke-width="3" stroke-linecap="square"/><ellipse fill="#FFF" cx="75.5" cy="180.5" rx="6.5" ry="6.5"/><ellipse fill="#ECF0F2" cx="79.5" cy="182.5" rx="6.5" ry="6.5"/><ellipse stroke="#5596E6" stroke-width="3" cx="75.5" cy="180.5" rx="6.5" ry="6.5"/><ellipse stroke="#4178BE" stroke-width="3" fill="#FFF" cx="83.5" cy="214.5" rx="6.5" ry="6.5"/><ellipse fill="#ECF0F2" cx="87.5" cy="216.5" rx="6.5" ry="6.5"/><ellipse stroke="#5596E6" stroke-width="3" cx="83.5" cy="214.5" rx="6.5" ry="6.5"/><path d="M262.5 129.5v20M194.5 154.5h15.033M90.5 215.5h23M331.5 164.5h12.166M322.5 188.035v19.73M194.5 130.5V154M113.5 129.5v46.043M22.445 181.5H68.5" stroke="#5596E6" stroke-width="3" stroke-linecap="square"/></g></svg>